<svg viewBox="0 0 100 100" xmlns="http://www.w3.org/2000/svg">
    <defs>
        <style>
            .skin { fill: #fde68a; }
            .hair { fill: #f59e0b; }
            .clothes { fill: #ec4899; }
            .eyes { fill: #1f2937; }
            .text { font-family: Inter, sans-serif; font-size: 7px; fill: #0f172a; text-anchor: middle; }
        </style>
    </defs>
    <!-- Kopf -->
    <circle cx="50" cy="32" r="16" class="skin"/>
    <!-- Lange Haare -->
    <path d="M35 22 Q50 12 65 22 Q50 5 35 22" class="hair"/>
    <path d="M35 22 Q40 35 35 45" class="hair"/>
    <path d="M65 22 Q60 35 65 45" class="hair"/>
    <!-- Augen -->
    <circle cx="45" cy="29" r="2" class="eyes"/>
    <circle cx="55" cy="29" r="2" class="eyes"/>
    <!-- Wimpern -->
    <path d="M43 27 L44 26" stroke="#1f2937" stroke-width="0.5"/>
    <path d="M53 27 L54 26" stroke="#1f2937" stroke-width="0.5"/>
    <!-- Lächeln -->
    <path d="M47 37 Q50 39 53 37" stroke="#1f2937" stroke-width="1" fill="none"/>
    <!-- Kleid -->
    <path d="M37 48 L63 48 L68 73 L32 73 Z" class="clothes"/>
    <!-- Muster auf Kleid -->
    <circle cx="45" cy="58" r="2" fill="white"/>
    <circle cx="55" cy="63" r="2" fill="white"/>
    <!-- Arme -->
    <rect x="28" y="50" width="6" height="15" rx="3" class="skin"/>
    <rect x="66" y="50" width="6" height="15" rx="3" class="skin"/>
    <!-- Beine -->
    <rect x="42" y="73" width="6" height="18" rx="3" class="skin"/>
    <rect x="52" y="73" width="6" height="18" rx="3" class="skin"/>
    <!-- Schuhe -->
    <rect x="40" y="91" width="8" height="3" fill="#dc2626"/>
    <rect x="52" y="91" width="8" height="3" fill="#dc2626"/>
    <text x="50" y="98" class="text">Schülerin</text>
</svg>
