<svg viewBox="0 0 100 100" xmlns="http://www.w3.org/2000/svg">
    <defs>
        <style>
            .skin { fill: #fde68a; }
            .hair { fill: #92400e; }
            .clothes { fill: #3b82f6; }
            .eyes { fill: #1f2937; }
            .text { font-family: Inter, sans-serif; font-size: 7px; fill: #0f172a; text-anchor: middle; }
        </style>
    </defs>
    <!-- Kopf -->
    <circle cx="50" cy="30" r="18" class="skin"/>
    <!-- Haare mit Brille -->
    <path d="M35 20 Q50 12 65 20 Q50 8 35 20" class="hair"/>
    <!-- Brille -->
    <circle cx="44" cy="27" r="6" fill="none" stroke="#1f2937" stroke-width="1"/>
    <circle cx="56" cy="27" r="6" fill="none" stroke="#1f2937" stroke-width="1"/>
    <line x1="50" y1="25" x2="50" y2="27" stroke="#1f2937" stroke-width="1"/>
    <!-- Augen -->
    <circle cx="44" cy="27" r="2" class="eyes"/>
    <circle cx="56" cy="27" r="2" class="eyes"/>
    <!-- Lächeln -->
    <path d="M45 35 Q50 38 55 35" stroke="#1f2937" stroke-width="1" fill="none"/>
    <!-- Körper (Anzug) -->
    <rect x="35" y="48" width="30" height="30" rx="4" class="clothes"/>
    <!-- Krawatte -->
    <path d="M50 48 L47 58 L53 58 Z" fill="#dc2626"/>
    <!-- Hemd -->
    <rect x="42" y="52" width="16" height="4" fill="white"/>
    <!-- Arme -->
    <rect x="25" y="53" width="8" height="18" rx="4" class="skin"/>
    <rect x="67" y="53" width="8" height="18" rx="4" class="skin"/>
    <!-- Beine -->
    <rect x="40" y="78" width="8" height="15" rx="4" fill="#1f2937"/>
    <rect x="52" y="78" width="8" height="15" rx="4" fill="#1f2937"/>
    <text x="50" y="98" class="text">Lehrer</text>
</svg>
