<svg viewBox="0 0 100 100" xmlns="http://www.w3.org/2000/svg">
    <defs>
        <linearGradient id="settingsGrad" x1="0%" y1="0%" x2="100%" y2="100%">
            <stop offset="0%" style="stop-color:#64748b;stop-opacity:1" />
            <stop offset="100%" style="stop-color:#475569;stop-opacity:1" />
        </linearGradient>
    </defs>
    <!-- Kreis-Button -->
    <circle cx="50" cy="50" r="35" fill="url(#settingsGrad)" stroke="#334155" stroke-width="2"/>
    <!-- Zahnrad -->
    <circle cx="50" cy="50" r="12" fill="white"/>
    <circle cx="50" cy="50" r="6" fill="url(#settingsGrad)"/>
    <!-- Zähne -->
    <rect x="48" y="28" width="4" height="8" fill="white"/>
    <rect x="48" y="64" width="4" height="8" fill="white"/>
    <rect x="28" y="48" width="8" height="4" fill="white"/>
    <rect x="64" y="48" width="8" height="4" fill="white"/>
    <!-- Diagonale Zähne -->
    <rect x="35" y="33" width="6" height="4" fill="white" transform="rotate(45 38 35)"/>
    <rect x="59" y="33" width="6" height="4" fill="white" transform="rotate(-45 62 35)"/>
    <rect x="35" y="63" width="6" height="4" fill="white" transform="rotate(-45 38 65)"/>
    <rect x="59" y="63" width="6" height="4" fill="white" transform="rotate(45 62 65)"/>
    <!-- Schatten -->
    <ellipse cx="50" cy="85" rx="25" ry="5" fill="rgba(0,0,0,0.2)"/>
</svg>
